<svg class="icon-caret-right" viewBox="0 0 32 32">
<title>caret-right</title>
    <path fill="white" d="M11.018 9.095c-0.407-0.382-0.618-0.883-0.618-1.452 0-0.559 0.209-1.056 0.593-1.427 0.395-0.405 0.901-0.617 1.471-0.617 0.576 0 1.086 0.211 1.473 0.608l8.858 8.821c0.261 0.268 0.405 0.606 0.405 0.976s-0.144 0.709-0.413 0.985l-8.841 8.804c-0.39 0.4-0.897 0.606-1.471 0.606-0.571 0-1.078-0.203-1.465-0.59-0.4-0.387-0.609-0.884-0.609-1.443 0-0.568 0.211-1.070 0.601-1.435l6.953-6.927-6.936-6.91z"></path>
</svg>